<svg width="20" height="20" viewBox="0 0 20 20" fill="none" xmlns="http://www.w3.org/2000/svg">
<path d="M10 4.27271V10.8182" stroke="#D95757" stroke-width="1.5" stroke-linecap="round" stroke-linejoin="round"/>
<path d="M10 14.0908C10.2259 14.0908 10.4091 14.274 10.4091 14.4999" stroke="#D95757" stroke-width="1.5" stroke-linecap="round" stroke-linejoin="round"/>
<path d="M9.59094 14.4999C9.59094 14.274 9.7741 14.0908 10 14.0908" stroke="#D95757" stroke-width="1.5" stroke-linecap="round" stroke-linejoin="round"/>
<path d="M10 14.9091C9.7741 14.9091 9.59094 14.7259 9.59094 14.5" stroke="#D95757" stroke-width="1.5" stroke-linecap="round" stroke-linejoin="round"/>
<path d="M10.4091 14.5C10.4091 14.7259 10.2259 14.9091 10 14.9091" stroke="#D95757" stroke-width="1.5" stroke-linecap="round" stroke-linejoin="round"/>
<path fill-rule="evenodd" clip-rule="evenodd" d="M10 19C14.9706 19 19 14.9706 19 10C19 5.02944 14.9706 1 10 1C5.02944 1 1 5.02944 1 10C1 14.9706 5.02944 19 10 19Z" stroke="#D95757" stroke-width="1.5" stroke-linecap="round" stroke-linejoin="round"/>
</svg>
