<svg width="20" height="12" viewBox="0 0 20 12" fill="none" xmlns="http://www.w3.org/2000/svg">
<path fill-rule="evenodd" clip-rule="evenodd" d="M0.898184 7.29013C0.236778 6.55585 0.236778 5.44062 0.899898 4.70445C3.44671 1.90111 6.89968 -0.0470817 10.0003 0.000865918C13.1005 -0.0470754 16.5526 1.90024 19.1049 4.70634C19.7663 5.44062 19.7663 6.55585 19.1031 7.29207C16.556 10.0953 13.1175 12.0505 10.0104 11.9978C6.88297 12.0505 3.44473 10.0949 0.898184 7.29013ZM18.2153 5.51157C15.8728 2.93608 12.7133 1.1552 10.0105 1.20079H9.99025C7.2871 1.15519 4.12707 2.93674 1.7898 5.50942C1.53955 5.78725 1.53955 6.20922 1.78821 6.48529C4.12287 9.05669 7.26518 10.8439 10.0105 10.7981C12.7355 10.8439 15.8783 9.05691 18.2133 6.48705C18.4636 6.20922 18.4636 5.78725 18.2153 5.51157Z" fill="#9F9FAF"/>
<path fill-rule="evenodd" clip-rule="evenodd" d="M6.40063 5.99874C6.40046 7.98674 8.01181 9.59852 9.99981 9.59888C11.9878 9.59923 13.5997 7.98806 13.6003 6.0001C13.6008 5.04511 13.2217 4.12908 12.5465 3.45371C11.8713 2.77832 10.9553 2.39899 10.0003 2.39925C8.01245 2.39925 6.40081 4.01074 6.40063 5.99874ZM11.6979 4.3021C12.148 4.75231 12.4007 5.36295 12.4004 5.99971C12.4 7.32505 11.3254 8.39919 10.0001 8.39895C8.67472 8.39872 7.60049 7.32419 7.6006 5.99886C7.60072 4.67353 8.67515 3.5992 10.0005 3.5992C10.6372 3.59903 11.2478 3.85189 11.6979 4.3021Z" fill="#9F9FAF"/>
</svg>
