<svg width="20" height="17" viewBox="0 0 20 17" fill="none" xmlns="http://www.w3.org/2000/svg">
<path d="M2.62512 16.4122L17.6253 0.859985" stroke="#F2F2F9" stroke-width="1.125" stroke-linecap="round" stroke-linejoin="round"/>
<path d="M7.57007 14.7282C8.35633 14.9919 9.17561 15.1228 9.9989 15.1162C13.2789 15.1758 16.6054 12.6857 18.6582 10.2457C19.1141 9.69916 19.1141 8.86902 18.6582 8.32245C17.9145 7.44134 17.0906 6.64329 16.199 5.94037" stroke="#F2F2F9" stroke-width="1.125" stroke-linecap="round" stroke-linejoin="round"/>
<path d="M11.9292 3.69565C11.298 3.526 10.6493 3.44412 9.9988 3.452C6.77396 3.39411 3.43872 5.82976 1.34189 8.3207C0.886035 8.86728 0.886035 9.69741 1.34189 10.244C1.97944 10.9978 2.6753 11.6915 3.42192 12.3176" stroke="#F2F2F9" stroke-width="1.125" stroke-linecap="round" stroke-linejoin="round"/>
<path d="M6.99878 9.28405C6.99857 8.42466 7.31457 7.60041 7.87724 6.99274C8.4399 6.38506 9.20309 6.04378 9.99882 6.04401" stroke="#F2F2F9" stroke-width="1.125" stroke-linecap="round" stroke-linejoin="round"/>
<path d="M12.9988 9.28326V9.28326C12.999 10.1427 12.683 10.9671 12.1204 11.5749C11.5578 12.1827 10.7946 12.5242 9.99878 12.5242" stroke="#F2F2F9" stroke-width="1.125" stroke-linecap="round" stroke-linejoin="round"/>
</svg>
